<?xml version="1.0" encoding="UTF-8"?>
<!DOCTYPE svg PUBLIC "-//W3C//DTD SVG 1.1//EN" "http://www.w3.org/Graphics/SVG/1.1/DTD/svg11.dtd">
<svg xmlns="http://www.w3.org/2000/svg" version="1.1" width="50px" height="50px" style="shape-rendering:geometricPrecision; text-rendering:geometricPrecision; image-rendering:optimizeQuality; fill-rule:evenodd; clip-rule:evenodd" xmlns:xlink="http://www.w3.org/1999/xlink">
<g><path style="opacity:0.761" fill="#d8d4cf" d="M -0.5,1.5 C 3.84611,1.33432 8.17944,1.50098 12.5,2C 14.1275,5.71509 15.4608,9.54842 16.5,13.5C 26.8119,14.4986 37.1452,14.8319 47.5,14.5C 46.205,21.4297 44.0383,28.0963 41,34.5C 34.555,35.149 28.055,35.8157 21.5,36.5C 22.2458,37.7362 22.5792,39.0695 22.5,40.5C 28.8001,41.2065 35.1334,41.7065 41.5,42C 42.7785,44.4976 42.7785,46.9976 41.5,49.5C 39.5,49.5 37.5,49.5 35.5,49.5C 34.6586,47.6208 34.3253,45.6208 34.5,43.5C 32.8333,43.5 31.1667,43.5 29.5,43.5C 29.6747,45.6208 29.3414,47.6208 28.5,49.5C 26.5,49.5 24.5,49.5 22.5,49.5C 18.2097,35.014 14.2097,20.3474 10.5,5.5C 8.99683,4.44298 7.33017,3.77631 5.5,3.5C 3.66634,4.75445 1.66634,5.42112 -0.5,5.5C -0.5,4.16667 -0.5,2.83333 -0.5,1.5 Z M 16.5,17.5 C 25.6575,16.3424 34.9908,16.1757 44.5,17C 42.0022,22.3274 40.0022,27.8274 38.5,33.5C 32.5,33.5 26.5,33.5 20.5,33.5C 19.7683,27.9063 18.435,22.5729 16.5,17.5 Z M 24.5,44.5 C 26.337,44.6395 26.6704,45.3061 25.5,46.5C 24.7025,46.0431 24.3691,45.3764 24.5,44.5 Z M 37.5,44.5 C 39.337,44.6395 39.6704,45.3061 38.5,46.5C 37.7025,46.0431 37.3691,45.3764 37.5,44.5 Z"/></g>
</svg>
