<svg xmlns="http://www.w3.org/2000/svg" version="1.1" xmlns:xlink="http://www.w3.org/1999/xlink" xmlns:svgjs="http://svgjs.dev/svgjs" width="1000" height="623" viewBox="0 0 1000 623"><g transform="matrix(1,0,0,1,-0.6060606060606233,42.19201913875594)"><svg viewBox="0 0 396 247" data-background-color="#ffffff" preserveAspectRatio="xMidYMid meet" height="623" width="1000" xmlns="http://www.w3.org/2000/svg" xmlns:xlink="http://www.w3.org/1999/xlink"><g id="tight-bounds" transform="matrix(1,0,0,1,0.2400000000000091,-0.09999999999999432)"><svg viewBox="0 0 395.52 247.2" height="247.2" width="395.52"><g><svg></svg></g><g><svg viewBox="0 0 395.52 247.2" height="247.2" width="395.52"><g transform="matrix(1,0,0,1,75.54432,110.40678166192544)"><svg viewBox="0 0 244.43135999999998 26.386436676149128" height="26.386436676149128" width="244.43135999999998"><g><svg viewBox="0 0 244.43135999999998 26.386436676149128" height="26.386436676149128" width="244.43135999999998"><g><svg viewBox="0 0 244.43135999999998 26.386436676149128" height="26.386436676149128" width="244.43135999999998"><g><svg viewBox="0 0 244.43135999999998 26.386436676149128" height="26.386436676149128" width="244.43135999999998"><g id="textblocktransform"><svg viewBox="0 0 244.43135999999998 26.386436676149128" height="26.386436676149128" width="244.43135999999998" id="textblock"><g><svg viewBox="0 0 244.43135999999998 26.386436676149128" height="26.386436676149128" width="244.43135999999998"><g transform="matrix(1,0,0,1,0,0)"><svg width="244.43135999999998" viewBox="2.049999952316284 -35.54999923706055 333.9200134277344 36.04999923706055" height="26.386436676149128" data-palette-color="#97978d"><path d="M25.05-15.45L25.05-15.45 25.05-19.15Q25.05-28.3 24.15-30.7L24.15-30.7Q23.15-33.45 21.3-34.1L21.3-34.1Q20.25-34.5 18.75-34.5 17.25-34.5 16.18-34.1 15.1-33.7 14.4-32.7 13.7-31.7 13.28-30.6 12.85-29.5 12.6-27.5L12.6-27.5Q12.3-24.6 12.3-18.95L12.3-18.95 12.3-15.35Q12.3-9.25 12.78-6.68 13.25-4.1 13.95-3L13.95-3Q15.5-0.55 18.75-0.55L18.75-0.55Q22.7-0.55 23.88-3.88 25.05-7.2 25.05-15.45ZM18.65 0.5Q10.3 0.5 6.18-4.03 2.05-8.55 2.05-17.13 2.05-25.7 6.48-30.63 10.9-35.55 19-35.55 27.1-35.55 31.23-30.88 35.35-26.2 35.35-17.6 35.35-9 31.18-4.25 27 0.5 18.65 0.5ZM69.65-34.05L66.9-34.05 66.9 0 59.9 0 42.75-32.35 42.75-0.95 45.5-0.95 45.5 0 38.65 0 38.65-0.95 41.4-0.95 41.4-34.05 38.65-34.05 38.65-35 52.45-35 65.55-9.9 65.55-34.05 62.8-34.05 62.8-35 69.65-35 69.65-34.05ZM71.95-33.9L71.95-35 89.95-35 89.95-33.9 84.65-33.9 84.65-1.1 86.45-1.1Q90.7-1.1 93.22-3.7 95.75-6.3 98.35-11.7L98.35-11.7 99.4-11.7 98.45 0 71.95 0 71.95-1.1 74.9-1.1 74.9-33.9 71.95-33.9ZM101.94-34.05L101.94-35 117.19-35 117.19-34.05 114.44-34.05 114.44-0.95 117.19-0.95 117.19 0 101.94 0 101.94-0.95 104.69-0.95 104.69-34.05 101.94-34.05ZM150.69-34.05L147.94-34.05 147.94 0 140.94 0 123.79-32.35 123.79-0.95 126.54-0.95 126.54 0 119.69 0 119.69-0.95 122.44-0.95 122.44-34.05 119.69-34.05 119.69-35 133.49-35 146.59-9.9 146.59-34.05 143.84-34.05 143.84-35 150.69-35 150.69-34.05ZM152.99-33.9L152.99-35 178.99-35 179.49-25.1 178.59-25.1Q176.49-30.15 174.19-32.02 171.89-33.9 167.44-33.9L167.44-33.9 165.69-33.9 165.69-18.45 167.39-18.45Q169.74-18.45 171.34-20.23 172.94-22 173.59-25L173.59-25 174.34-25 174.34-10.2 173.49-10.2Q172.59-13.95 171.06-15.55 169.54-17.15 166.89-17.15L166.89-17.15 165.69-17.15 165.69-1.1 167.59-1.1Q172.19-1.1 175.41-3.85 178.64-6.6 179.84-10.9L179.84-10.9 180.84-10.9 180.44 0 152.99 0 152.99-1.1 155.94-1.1 155.94-33.9 152.99-33.9ZM198.23-13.9L185.63-13.9 185.63-15.4 198.23-15.4 198.23-13.9ZM216.98-0.55L216.98-0.55Q219.48-0.55 221.41-1.9 223.33-3.25 223.33-5.98 223.33-8.7 221.26-10.15 219.18-11.6 215.36-12.68 211.53-13.75 209.81-14.55 208.08-15.35 206.53-16.65L206.53-16.65Q203.43-19.25 203.43-24.7L203.43-24.7Q203.43-29.15 206.61-32.35 209.78-35.55 215.28-35.55L215.28-35.55Q217.93-35.55 220.81-34.77 223.68-34 224.38-34 225.08-34 225.63-35L225.63-35 226.18-35 226.53-24.9 225.73-24.9Q223.33-29.25 220.71-31.88 218.08-34.5 215.01-34.5 211.93-34.5 210.23-33.08 208.53-31.65 208.53-29.28 208.53-26.9 210.56-25.63 212.58-24.35 215.53-23.55 218.48-22.75 219.41-22.45 220.33-22.15 221.71-21.63 223.08-21.1 223.96-20.53 224.83-19.95 225.81-19.07 226.78-18.2 227.33-17.15L227.33-17.15Q228.68-14.75 228.68-11.45L228.68-11.45Q228.68-6.05 225.31-2.78 221.93 0.5 216.43 0.5L216.43 0.5Q213.58 0.5 209.91-0.25 206.23-1 205.83-1L205.83-1Q205.13-1 204.48 0.5L204.48 0.5 203.78 0.5 203.28-11.4 204.13-11.4Q206.33-7.05 209.76-3.8 213.18-0.55 216.98-0.55ZM231.78-34.05L231.78-35 247.38-35 247.38-34.05 244.48-34.05 244.48-18.55 254.43-18.55 254.43-34.05 251.48-34.05 251.48-35 267.13-35 267.13-34.05 264.18-34.05 264.18-0.95 267.13-0.95 267.13 0 251.48 0 251.48-0.95 254.43-0.95 254.43-17.25 244.48-17.25 244.48-0.95 247.38-0.95 247.38 0 231.78 0 231.78-0.95 234.73-0.95 234.73-34.05 231.78-34.05ZM293.23-15.45L293.23-15.45 293.23-19.15Q293.23-28.3 292.33-30.7L292.33-30.7Q291.33-33.45 289.48-34.1L289.48-34.1Q288.43-34.5 286.93-34.5 285.43-34.5 284.35-34.1 283.28-33.7 282.58-32.7 281.88-31.7 281.45-30.6 281.03-29.5 280.78-27.5L280.78-27.5Q280.48-24.6 280.48-18.95L280.48-18.95 280.48-15.35Q280.48-9.25 280.95-6.68 281.43-4.1 282.13-3L282.13-3Q283.68-0.55 286.93-0.55L286.93-0.55Q290.88-0.55 292.05-3.88 293.23-7.2 293.23-15.45ZM286.83 0.5Q278.48 0.5 274.35-4.03 270.23-8.55 270.23-17.13 270.23-25.7 274.65-30.63 279.08-35.55 287.18-35.55 295.28-35.55 299.4-30.88 303.53-26.2 303.53-17.6 303.53-9 299.35-4.25 295.18 0.5 286.83 0.5ZM306.32-34.05L306.32-35 321.02-35Q328.57-35 332.27-32.83 335.97-30.65 335.97-25.05L335.97-25.05Q335.97-18.85 331.47-16.5L331.47-16.5Q327.27-14.35 319.72-14.35L319.72-14.35 319.32-14.35 319.32-0.95 325.57-0.95 325.57 0 306.32 0 306.32-0.95 309.57-0.95 309.57-34.05 306.32-34.05ZM320.68-34.05L319.32-34.05 319.32-15.3 320.38-15.3Q323.38-15.3 324.52-17.35 325.68-19.4 325.68-24L325.68-24 325.68-26.4Q325.68-30.65 324.6-32.35 323.52-34.05 320.68-34.05L320.68-34.05Z" opacity="1" transform="matrix(1,0,0,1,0,0)" fill="#97978d" class="wordmark-text-0" data-fill-palette-color="primary" id="text-0"></path></svg></g></svg></g></svg></g></svg></g><g></g></svg></g></svg></g></svg></g><g><path d="M77.097 104.178A122.216 122.216 0 0 1 318.423 104.178L316.043 104.178A119.836 119.836 0 0 0 79.477 104.178L77.097 104.178M77.097 143.022A122.216 122.216 0 0 0 318.423 143.022L316.043 143.022A119.836 119.836 0 0 1 79.477 143.022L77.097 143.022" fill="#97978d" stroke="transparent" data-fill-palette-color="tertiary"></path></g></svg></g><defs></defs></svg><rect width="395.52" height="247.2" fill="none" stroke="none" visibility="hidden"></rect></g></svg></g></svg>